<?xml version="1.0" encoding="UTF-8"?>
<svg version="1.1" viewBox="0 0 2048 2048" width="1280" height="1280" xmlns="http://www.w3.org/2000/svg">
<path transform="translate(0)" d="m0 0h2048v2048h-2048z" fill="#FDFDFD"/>
<path transform="translate(377,337)" d="m0 0h917l18 2 17 4 16 6 19 10 14 10 12 11 7 7 10 13 10 17 8 19 5 19 2 18v548l-229 1-17 2-21 5-17 6-17 8-19 12-13 11-9 8-11 14-7 10-13 21-15 24-9 15-8 13-3 4-58 1-15 2-16 6-11 8-10 9-7 11-6 12-4 14-1 6v20l4 16 8 16 6 8 8 7 12 7 1 2-9 24-7 27-4 22-4 36-2 39-1 64h-527l-20-2-19-4-19-7-18-10-12-9-10-9-12-12-12-17-8-15-6-15-5-20-2-19v-914l2-22 6-23 7-16 9-16 10-13 11-12 12-10 18-12 17-8 19-6 15-3z" fill="#025FA8"/>
<path transform="translate(1206,1062)" d="m0 0h131l213 1 21 5 15 6 17 9 12 9 10 9 9 10 11 17 16 26 13 21 16 26 9 14 78 1 10 2 8 4 7 7 6 12 2 9v9l-3 10-6 8-8 5-30 10-13 4 6 11 12 19 8 16 6 16 6 24 5 35 2 25 1 24v223l-2 9-6 8-8 4-47 1h-48l-10-1-10-6-4-6-1-3-1-59h-572l-1 57-4 9-7 6-5 2-43 1h-53l-9-1-8-5-5-6-2-6v-241l3-40 5-31 5-20 5-15 9-19 8-13 10-16v-2l-43-14-8-6-4-5-4-10v-14l4-12 4-6 5-5 5-4 8-3 16-1 69-1 7-12 25-40 14-23 12-19 7-10 11-13 14-11 14-9 17-8 21-6z" fill="#2A2B2A"/>
<path transform="translate(564,554)" d="m0 0 326 1 27 1 39 3 27 4 23 6 19 8 16 8 12 8 12 9 10 9 8 7 12 13 13 17 9 15 8 16 6 15 7 23 4 20 3 25 1 33-1 22-3 23-5 23-10 30-10 20-11 17-12 16-9 10-15 15-16 12-16 10-17 9-19 8-20 6-21 4-34 4-43 3-26 1-140 1-1 285-1 1h-152l-1-1-1-44v-709z" fill="#FDFDFD"/>
<path transform="translate(1210,1103)" d="m0 0h328l14 2 17 6 14 8 13 11 8 10 11 17 17 28 15 24 16 26 14 22 10 17 1 3v7l-3 6-6 5-6 1-172 1h-266l-164-1-7-3-5-6-1-2v-9l5-10 12-19 15-24 14-23 14-22 14-23 11-17 9-10 9-8 14-8 12-5 12-3z" fill="#FDFDFD"/>
<path transform="translate(718,683)" d="m0 0h134l32 2 20 3 15 4 19 9 11 8 10 9 8 8 8 13 5 10 5 16 2 11v27l-4 19-6 16-9 15-12 13-9 8-15 9-12 5-18 5-28 4-27 2-30 1h-76l-24-1v-215z" fill="#025FA8"/>
<path transform="translate(1290,1531)" d="m0 0h154l40 1 7 8 1 4v25l-2 8-6 6-40 1h-163l-19-1-5-4-3-6v-31l3-6 5-4z" fill="#FDFDFD"/>
<path transform="translate(1689,1379)" d="m0 0h13l13 4 11 7 7 7 7 12 3 12v11l-3 12-5 10-10 11-16 8-13 2h-78l-13-2-8-4-8-7-6-12-1-4v-11l3-10 6-8 7-6 14-6 62-22 9-3z" fill="#FDFDFD"/>
<path transform="translate(1043,1379)" d="m0 0h15l20 6 42 15 21 8 11 6 6 7 4 8 2 8v7l-3 11-8 11-9 6-7 2-9 1h-78l-13-2-10-4-9-7-8-9-5-11-2-8v-15l4-13 6-9 5-6 11-7 10-4z" fill="#FDFDFD"/>
</svg>
